<?xml version="1.0" encoding="utf-8"?>
<!-- Generator: Adobe Illustrator 17.0.0, SVG Export Plug-In . SVG Version: 6.00 Build 0)  -->
<!DOCTYPE svg PUBLIC "-//W3C//DTD SVG 1.1//EN" "http://www.w3.org/Graphics/SVG/1.1/DTD/svg11.dtd">
<svg version="1.1" id="Ebene_1" xmlns="http://www.w3.org/2000/svg" xmlns:xlink="http://www.w3.org/1999/xlink" x="0px" y="0px"
	 width="640px" height="640px" viewBox="0 0 640 640" enable-background="new 0 0 640 640" xml:space="preserve">
<g>
	<g>
		<path fill="#ffffff" d="M194.941,125.572c10.077,0,19.474,1.938,28.214,5.795c8.729,3.865,16.372,9.067,22.922,15.617
			c6.55,6.55,11.752,14.28,15.617,23.174c3.857,8.901,5.795,18.389,5.795,28.466v198.993c0,9.408-1.686,18.31-5.04,26.704
			c-3.362,8.398-7.895,15.789-13.6,22.164c-5.717,6.385-12.518,11.677-20.406,15.872c-7.894,4.203-16.372,6.799-25.438,7.809v43.827
			h-16.627v-43.827c-9.067-1.01-17.555-3.605-25.442-7.809c-7.895-4.195-14.696-9.487-20.402-15.872
			c-5.716-6.374-10.249-13.766-13.604-22.164c-3.361-8.394-5.037-17.296-5.037-26.704V198.623c0-10.077,1.927-19.564,5.795-28.466
			c3.854-8.894,9.067-16.624,15.617-23.174c6.547-6.55,14.269-11.752,23.174-15.617
			C175.373,127.509,184.868,125.572,194.941,125.572z M250.862,198.116c0-7.722-1.51-14.937-4.534-21.66
			c-3.023-6.715-7.054-12.597-12.09-17.634c-5.04-5.037-10.918-9.067-17.634-12.09c-6.723-3.023-13.942-4.533-21.664-4.533
			c-7.729,0-15.034,1.51-21.912,4.533c-6.888,3.023-12.849,7.054-17.885,12.09c-5.04,5.037-9.07,10.918-12.09,17.634
			c-3.023,6.723-4.537,13.938-4.537,21.66v198.997c0,14.107,4.537,26.369,13.604,36.777c9.067,10.415,20.481,16.8,34.257,19.144
			V343.208h16.627v109.825c13.765-2.344,25.187-8.729,34.257-19.144c9.067-10.408,13.6-22.671,13.6-36.777V198.116z"/>
	</g>
	<path fill="#ffffff" d="M363.193,382.8c0.405-15.747-3.635-33.108-23.822-33.108c-13.727,0-25.437,6.865-31.497,11.707l-3.23-4.841
		c6.06-4.445,19.381-12.52,35.131-12.52c22.612,0,29.473,16.961,29.473,36.342v62.585h-5.246l-0.81-12.921h-0.405
		c-10.092,8.075-22.207,15.341-35.128,15.341c-14.937,0-27.858-7.671-27.858-26.04C299.803,397.741,319.585,387.645,363.193,382.8z
		 M328.066,439.733c11.71,0,22.207-5.651,35.128-16.556V388.05c-42.398,4.845-56.93,14.536-56.93,31.092
		C306.263,434.082,316.355,439.733,328.066,439.733z"/>
	<path fill="#ffffff" d="M409.108,451.444v62.985h-6.056V346.461h5.25l0.806,12.516h0.405c9.691-7.671,21.401-14.941,33.512-14.941
		c26.247,0,38.763,19.381,38.763,49.263c0,32.703-19.786,52.084-42.799,52.084c-9.289,0-19.381-4.44-29.881-12.111V451.444z
		 M439.39,439.733c21.001,0,35.937-19.381,35.937-46.433c0-24.632-8.881-43.608-32.707-43.608c-10.092,0-20.993,6.056-33.513,16.957
		v59.759C420.818,436.098,431.72,439.733,439.39,439.733z"/>
	<path fill="#ffffff" d="M512.051,346.461h6.056v96.502h-6.056V346.461z"/>
</g>
</svg>
